<svg version="1.1" xmlns="http://www.w3.org/2000/svg" xmlns:xlink="http://www.w3.org/1999/xlink" width="537" height="423" viewBox="0,0,537,423"><g transform="translate(23.5,31.5)"><g data-paper-data="{&quot;isPaintingLayer&quot;:true}" fill-rule="nonzero" stroke-linecap="butt" stroke-linejoin="miter" stroke-miterlimit="10" stroke-dasharray="" stroke-dashoffset="0" style="mix-blend-mode: normal"><path d="M-22.5,390.5v-421h535v421z" fill="#ffffff" stroke="#000000" stroke-width="2"/><text transform="translate(44.5,70) scale(0.5,0.5)" font-size="40" xml:space="preserve" fill="#000000" fill-rule="nonzero" stroke="none" stroke-width="1" stroke-linecap="butt" stroke-linejoin="miter" stroke-miterlimit="10" stroke-dasharray="" stroke-dashoffset="0" font-family="Sans Serif" font-weight="normal" text-anchor="start" style="mix-blend-mode: normal"><tspan x="0" dy="0">DONT CLICK THE BUTTON!!!!!!</tspan></text><text transform="translate(54.75744,197.88365) rotate(-11.48457) scale(1.64843,1.64843)" font-size="40" xml:space="preserve" fill="#000000" fill-rule="nonzero" stroke="none" stroke-width="1" stroke-linecap="butt" stroke-linejoin="miter" stroke-miterlimit="10" stroke-dasharray="" stroke-dashoffset="0" font-family="Sans Serif" font-weight="normal" text-anchor="start" style="mix-blend-mode: normal"><tspan x="0" dy="0">JUST DONT</tspan></text><text transform="translate(216.5147,198.0795) rotate(25.10004) scale(0.25516,0.25516)" font-size="40" xml:space="preserve" fill="#000000" fill-rule="nonzero" stroke="none" stroke-width="1" stroke-linecap="butt" stroke-linejoin="miter" stroke-miterlimit="10" stroke-dasharray="" stroke-dashoffset="0" font-family="Sans Serif" font-weight="normal" text-anchor="start" style="mix-blend-mode: normal"><tspan x="0" dy="0">pls dont...</tspan></text><text transform="translate(24.5,304) scale(1.10672,1.10672)" font-size="40" xml:space="preserve" fill="#000000" fill-rule="nonzero" stroke="none" stroke-width="1" stroke-linecap="butt" stroke-linejoin="miter" stroke-miterlimit="10" stroke-dasharray="" stroke-dashoffset="0" font-family="Sans Serif" font-weight="normal" text-anchor="start" style="mix-blend-mode: normal"><tspan x="0" dy="0">YOU BETTER LISTEN</tspan></text><path d="M70,349c0,2.5 -2.5,2.5 -2.5,2.5l-1.82036,-0.29581c-0.55405,0.92753 -0.82106,2.10448 -1.66216,2.78258c-0.88229,0.71131 -2.2605,0.51075 -3.20316,1.13986c-1.17631,0.78505 -1.8023,2.24799 -3,3c-2.31438,1.45316 -7.44541,2.18754 -9.7761,0.90148c-1.65512,-0.91328 -1.18233,-4.01611 -2.85255,-4.90148c-1.00132,-0.53079 -2.31631,-0.43425 -3.20316,-1.13986c-0.94048,-0.74829 -1.06367,-2.24652 -2,-3c-0.75988,-0.6115 -1.95988,-0.3593 -2.79684,-0.86014c-0.85883,-0.51392 -1.31495,-1.54296 -2.14745,-2.09852c-2.21015,-1.47493 -4.71224,-2.47692 -6.92497,-3.94798c0,0 -2.08013,-1.38675 -0.69338,-3.46688c1.38675,-2.08013 3.46688,-0.69338 3.46688,-0.69338c2.25918,1.51069 4.81304,2.54553 7.07503,4.05202c0.73651,0.49052 1.09427,1.44532 1.85255,1.90148c0.97113,0.5842 2.31631,0.43425 3.20316,1.13986c0.94048,0.74829 1.06367,2.24652 2,3c0.60354,0.48568 1.49793,0.40542 2.24928,0.61953c0.61599,-2.75631 1.05193,-5.5562 1.81699,-8.27444c0.38638,-1.37278 0.55509,-2.95326 1.52761,-3.99633c1.14358,-1.22654 3.06919,-1.40576 4.42686,-2.3901c1.10337,-0.79997 1.82665,-2.0366 2.8768,-2.90525c4.20197,-3.47572 9.2015,-5.51554 14.58497,-5.56664c0,0 2.5,0 2.5,2.5c0,2.5 -2.5,2.5 -2.5,2.5c-4.1758,-0.05186 -8.1813,1.71721 -11.41503,4.43336c-1.12225,0.94263 -1.92398,2.25222 -3.1232,3.09475c-1.06892,0.75099 -2.59886,0.73965 -3.57314,1.6099c-0.51177,0.45712 -0.33143,1.3321 -0.47239,2.00367c-0.60776,2.89552 -1.20753,5.79457 -1.93481,8.6624l0.01856,2.69593c0,0 0,0.38749 -0.15256,0.85737c1.20911,-0.27794 3.22478,-0.90239 3.33823,-0.984c1.14801,-0.82587 1.82289,-2.21616 3,-3c0.81185,-0.54061 2.03302,-0.25357 2.79684,-0.86014c1.03817,-0.82443 1.55856,-2.14495 2.33784,-3.21742l4.17964,-0.29581c0,0 2.5,0 2.5,2.5z" fill="#000000" stroke="none" stroke-width="0.5"/><text transform="translate(86.5,339) scale(0.5,0.5)" font-size="40" xml:space="preserve" fill="#000000" fill-rule="nonzero" stroke="none" stroke-width="1" stroke-linecap="butt" stroke-linejoin="miter" stroke-miterlimit="10" stroke-dasharray="" stroke-dashoffset="0" font-family="Sans Serif" font-weight="normal" text-anchor="start" style="mix-blend-mode: normal"><tspan x="0" dy="0">DONT CLICK THAT!!!!!!     DONT DONT</tspan></text></g></g></svg>